#!OML:ASF X:\für Bonn\!DataBase\2005_08_12_Daniel\c3d\Daniel.ASF
:FULLY-SPECIFIED
:DEGREES
188
root -11.8099 16.4564 -31.0426 -16.2234 242.988 -358.378
lowerback 16.1334 0.860859 -3.29017
upperback 3.30438 0.122521 -2.67656
thorax -5.52605 -0.0301485 -0.985817
lowerneck -2.01917 5.66617 -2.41402
upperneck 7.19831 7.93997 -6.82911
head 2.86113 3.55742 -1.54465
rclavicle -4.29872e-015 3.02153e-014
rhumerus -45.7854 6.57125 -101.649
rradius 66.8673
rwrist 9.03156
rhand -33.73 33.6162
rfingers 7.12502
rthumb -6.91891 3.74927
lclavicle -4.29872e-015 3.02153e-014
lhumerus -47.879 2.43586 88.7601
lradius 92.4509
lwrist 3.70867
lhand -7.54842 -5.41331
lfingers 7.12502
lthumb 18.3433 23.7418
rfemur -4.16548 -7.33372 5.11311
rtibia 76.6469
rfoot -4.84129 0.968273
rtoes -14.7741
lfemur -23.0986 5.22279 -29.8803
ltibia 54.1522
lfoot -15.8714 1.16599
ltoes 12.123
189
root -11.9561 16.4815 -31.1123 -16.396 243.641 -358.182
lowerback 16.2277 0.852727 -2.95409
upperback 3.24644 0.160199 -2.7591
thorax -5.63765 -0.0143312 -1.27326
lowerneck -1.67457 5.65147 -2.49885
upperneck 7.22282 7.89871 -6.78569
head 2.79844 3.54049 -1.5269
rclavicle -2.67862e-014 -3.97569e-014
rhumerus -45.513 5.33677 -100.748
rradius 63.6321
rwrist 7.25523
rhand -33.9002 33.4931
rfingers 7.12502
rthumb -7.08326 3.63162
lclavicle -2.67862e-014 -3.97569e-014
lhumerus -46.2946 4.42473 89.8563
lradius 92.5565
lwrist 4.94897
lhand -9.52903 -4.89169
lfingers 7.12502
lthumb 16.4371 24.4319
rfemur -5.89932 -6.75534 6.21302
rtibia 76.6717
rfoot -5.56601 0.979038
rtoes -15.0012
lfemur -22.333 5.08991 -29.8786
ltibia 54.1014
lfoot -16.4617 0.579754
ltoes 12.1801
190
root -12.1034 16.5204 -31.1775 -16.5843 244.353 -357.975
lowerback 16.3138 0.819747 -2.61566
upperback 3.2131 0.168622 -2.81946
thorax -5.71832 -0.0137623 -1.53243
lowerneck -1.3713 5.62738 -2.83821
upperneck 7.22251 7.84375 -6.59623
head 2.71529 3.51456 -1.41827
rclavicle 1.06847e-014 6.04305e-014
rhumerus -45.2611 4.2617 -99.7739
rradius 60.572
rwrist 5.85789
rhand -34.0525 33.4058
rfingers 7.12502
rthumb -7.23028 3.54928
lclavicle 1.06847e-014 6.04305e-014
lhumerus -45.0064 6.28974 91.1557
lradius 92.9949
lwrist 7.17664
lhand -11.5921 -4.83199
lfingers 7.12502
lthumb 14.45 24.6449
rfemur -7.46544 -6.03788 7.34724
rtibia 76.4132
rfoot -6.27596 0.898841
rtoes -15.8327
lfemur -21.4321 4.75303 -29.9076
ltibia 53.8608
lfoot -16.9982 0.146083
ltoes 11.9765
191
root -12.2508 16.5681 -31.2436 -16.8272 245.111 -357.656
lowerback 16.2995 0.761408 -2.2796
upperback 3.17475 0.151189 -2.86901
thorax -5.75005 -0.0252494 -1.7724
lowerneck -1.06718 5.62019 -3.06725
upperneck 7.24786 7.81101 -6.45292
head 2.64948 3.5 -1.34283
rclavicle -2.6165e-014 7.95139e-015
rhumerus -45.0479 3.30448 -98.819
rradius 57.649
rwrist 5.16998
rhand -34.2375 33.1622
rfingers 7.12502
rthumb -7.40877 3.31198
lclavicle -2.6165e-014 7.95139e-015
lhumerus -43.9924 8.0227 92.5262
lradius 93.6012
lwrist 10.0289
lhand -13.5078 -5.38035
lfingers 7.12502
lthumb 12.6037 24.2194
rfemur -8.94494 -5.07942 8.61757
rtibia 75.9056
rfoot -6.90975 0.55512
rtoes -16.5681
lfemur -20.501 4.33964 -29.9165
ltibia 53.496
lfoot -17.5005 -0.241946
ltoes 11.7875
192
root -12.3976 16.6225 -31.3108 -17.134 245.909 -357.262
lowerback 16.2711 0.701831 -1.93732
upperback 3.12018 0.136858 -2.89411
thorax -5.79154 -0.03448 -1.99084
lowerneck -0.878524 5.6094 -3.3216
upperneck 7.37366 7.78579 -6.30766
head 2.6379 3.48144 -1.25873
rclavicle -1.66482e-015 9.54166e-015
rhumerus -44.9985 2.56821 -97.8651
rradius 55.0589
rwrist 4.91884
rhand -34.3278 32.7384
rfingers 7.12502
rthumb -7.496 2.89122
lclavicle -1.66482e-015 9.54166e-015
lhumerus -43.1346 9.14677 93.9598
lradius 94.1202
lwrist 13.2907
lhand -15.5313 -6.45644
lfingers 7.12502
lthumb 10.6523 23.2535
rfemur -10.2759 -3.9542 9.91719
rtibia 75.2046
rfoot -7.4813 0.158507
rtoes -17.129
lfemur -19.5392 4.02438 -29.884
ltibia 53.0524
lfoot -17.9014 -0.763598
ltoes 11.358
193
root -12.5407 16.6688 -31.379 -17.5473 246.796 -356.734
lowerback 16.1865 0.6056 -1.58385
upperback 3.08383 0.0794383 -2.91104
thorax -5.7843 -0.0650788 -2.19709
lowerneck -0.859543 5.58829 -3.4681
upperneck 7.59254 7.76427 -6.19631
head 2.6955 3.46008 -1.19807
rclavicle 6.40335e-014 6.36111e-015
rhumerus -45.0089 1.92506 -96.9203
rradius 52.7097
rwrist 5.45939
rhand -34.4332 32.2554
rfingers 7.12502
rthumb -7.59772 2.41191
lclavicle 6.40335e-014 6.36111e-015
lhumerus -42.2818 9.66702 95.2891
lradius 94.4378
lwrist 16.5829
lhand -17.4664 -8.04024
lfingers 7.12502
lthumb 8.78528 21.7569
rfemur -11.5198 -2.85559 11.1526
rtibia 74.3828
rfoot -7.91535 -0.154811
rtoes -17.2806
lfemur -18.6351 3.59245 -29.8398
ltibia 52.5985
lfoot -18.1967 -1.22161
ltoes 10.8983
